<svg width="1108" height="178" viewBox="0 0 1108 178" fill="none" xmlns="http://www.w3.org/2000/svg">
<path d="M95.1069 123.161H94.6679V177.356H76.7344V27.346H94.6679V47.0314H95.1069C103.933 32.1576 116.835 24.7207 133.828 24.7207C148.263 24.7207 159.53 29.7338 167.625 39.7602C175.716 49.7865 179.766 63.2222 179.766 80.0671C179.766 98.8027 175.206 113.806 166.093 125.074C156.976 136.341 144.508 141.972 128.685 141.972C114.174 141.972 102.983 135.7 95.1069 123.161ZM94.6679 77.9884V93.6283C94.6679 102.888 97.6784 110.746 103.695 117.198C109.707 123.653 117.346 126.879 126.606 126.879C137.475 126.879 145.987 122.722 152.147 114.411C158.307 106.096 161.389 94.5376 161.389 79.7356C161.389 67.2676 158.508 57.4967 152.747 50.4227C146.99 43.3532 139.186 39.8139 129.343 39.8139C118.914 39.8139 110.532 43.4428 104.184 50.696C97.8398 57.9537 94.6679 67.0482 94.6679 77.9884Z" fill="#4C4F51"/>
<path d="M266.827 45.5036C263.691 43.0978 259.171 41.8927 253.266 41.8927C245.61 41.8927 239.212 45.5036 234.069 52.7209C228.931 59.9383 226.359 69.7854 226.359 82.2534V139.347H208.421V27.346H226.359V46.2787C228.913 38.4072 232.197 35.7684 237.765 31.7678C243.356 27.7536 249.395 25.6032 256.111 25.3792C260.775 25.218 264.35 26.114 266.827 27.1354V45.5036Z" fill="#4C4F51"/>
<path d="M1107.96 45.5036C1104.82 43.0978 1100.3 41.8927 1094.4 41.8927C1086.74 41.8927 1080.34 45.5036 1075.2 52.7209C1070.06 59.9383 1067.49 69.7854 1067.49 82.2534V139.347H1049.55V27.346H1067.49V46.2787C1070.04 38.4072 1073.33 35.7684 1078.9 31.7678C1084.49 27.7536 1090.53 25.6032 1097.24 25.3792C1101.9 25.218 1105.48 26.114 1107.96 27.1354V45.5036Z" fill="#4C4F51"/>
<path d="M333.109 141.972C316.555 141.972 303.339 136.74 293.461 126.274C283.582 115.813 278.641 101.939 278.641 84.6591C278.641 65.8475 283.779 51.153 294.061 40.5801C304.343 30.0072 318.235 24.7207 335.734 24.7207C352.431 24.7207 365.468 29.8594 374.836 40.1411C384.208 50.4228 388.89 64.6782 388.89 82.9075C388.89 100.774 383.841 115.083 373.743 125.84C363.645 136.596 350.097 141.972 333.109 141.972ZM334.422 39.8139C322.899 39.8139 313.787 43.7339 307.08 51.574C300.369 59.4096 297.013 70.22 297.013 84.0006C297.013 97.2749 300.405 107.736 307.187 115.392C313.97 123.049 323.047 126.879 334.422 126.879C346.016 126.879 354.931 123.125 361.163 115.612C367.399 108.103 370.517 97.4184 370.517 83.5661C370.517 69.5659 367.399 58.7734 361.163 51.1887C354.931 43.6085 346.016 39.8139 334.422 39.8139Z" fill="#4C4F51"/>
<path d="M410.767 135.302V116.051C420.538 123.268 431.294 126.879 443.032 126.879C458.784 126.879 466.66 121.629 466.66 111.127C466.66 108.139 465.983 105.603 464.635 103.525C463.286 101.446 461.463 99.609 459.164 98.0007C456.871 96.3968 454.169 94.9588 451.073 93.682C447.973 92.4052 444.636 91.0746 441.065 89.6903C436.106 87.7236 431.751 85.7343 427.992 83.7273C424.238 81.7247 421.102 79.4623 418.589 76.949C416.071 74.4312 414.176 71.5685 412.899 68.3608C411.622 65.1531 410.986 61.3987 410.986 57.0979C410.986 51.8473 412.187 47.1971 414.597 43.1516C417.003 39.1017 420.21 35.7148 424.22 32.9775C428.23 30.2447 432.808 28.1837 437.947 26.7994C443.086 25.4151 448.394 24.7207 453.86 24.7207C463.559 24.7207 472.237 26.3963 479.894 29.7519V47.9094C471.655 42.5109 462.175 39.8139 451.454 39.8139C448.099 39.8139 445.075 40.1993 442.378 40.9654C439.681 41.727 437.364 42.8022 435.429 44.191C433.498 45.5753 432.006 47.2329 430.949 49.1683C429.892 51.0992 429.363 53.2317 429.363 55.5658C429.363 58.4823 429.892 60.9239 430.949 62.8951C432.006 64.8618 433.552 66.6136 435.595 68.1413C437.638 69.6735 440.115 71.0577 443.032 72.2987C445.948 73.5397 449.268 74.8882 452.986 76.3442C457.946 78.2438 462.394 80.1926 466.328 82.1997C470.266 84.2023 473.622 86.4647 476.395 88.978C479.163 91.4958 481.296 94.3943 482.792 97.6737C484.284 100.958 485.032 104.855 485.032 109.38C485.032 114.917 483.814 119.733 481.368 123.815C478.926 127.9 475.664 131.287 471.579 133.989C467.497 136.686 462.793 138.688 457.471 140.001C452.149 141.314 446.571 141.972 440.738 141.972C429.215 141.972 419.225 139.746 410.767 135.302Z" fill="#4C4F51"/>
<path d="M530.97 123.161H530.536V177.351H512.598V27.346H530.536V47.0313H530.97C539.796 32.1576 552.698 24.7207 569.691 24.7207C584.126 24.7207 595.393 29.7338 603.489 39.7602C611.579 49.7865 615.63 63.2222 615.63 80.0671C615.63 98.8027 611.069 113.806 601.956 125.074C592.84 136.341 580.371 141.972 564.548 141.972C550.037 141.972 538.846 135.7 530.97 123.161ZM530.536 77.9884V93.6282C530.536 102.888 533.542 110.746 539.559 117.198C545.571 123.653 553.209 126.879 562.469 126.879C573.338 126.879 581.85 122.722 588.01 114.411C594.17 106.096 597.252 94.5376 597.252 79.7356C597.252 67.2676 594.372 57.4967 588.61 50.4227C582.854 43.3532 575.049 39.8139 565.207 39.8139C554.777 39.8139 546.395 43.4428 540.051 50.696C533.708 57.9537 530.536 67.0482 530.536 77.9884Z" fill="#4C4F51"/>
<path d="M734.302 87.8311H655.225C655.516 100.299 658.867 109.927 665.287 116.705C671.702 123.488 680.523 126.879 691.755 126.879C704.371 126.879 715.96 122.722 726.538 114.411V131.252C716.691 138.397 703.676 141.972 687.49 141.972C671.666 141.972 659.234 136.887 650.189 126.713C641.148 116.544 636.628 102.23 636.628 83.7855C636.628 66.3582 641.569 52.1565 651.448 41.1804C661.331 30.2088 673.597 24.7207 688.256 24.7207C702.91 24.7207 714.249 29.4606 722.268 38.9404C730.292 48.4202 734.302 61.5825 734.302 78.4229V87.8311ZM715.924 72.6257C715.853 62.2724 713.357 54.2173 708.434 48.456C703.51 42.6946 696.674 39.8139 687.924 39.8139C679.466 39.8139 672.285 42.8424 666.38 48.895C660.471 54.943 656.828 62.8548 655.44 72.6257H715.924Z" fill="#4C4F51"/>
<path d="M837.772 134.204C829.166 139.383 818.956 141.972 807.147 141.972C791.175 141.972 778.286 136.775 768.48 126.386C758.673 115.997 753.771 102.526 753.771 85.9718C753.771 67.523 759.058 52.7031 769.631 41.512C780.204 30.3163 794.312 24.7207 811.958 24.7207C821.801 24.7207 830.479 26.5441 837.987 30.1909V48.5634C829.677 42.7304 820.779 39.8139 811.3 39.8139C799.853 39.8139 790.468 43.9177 783.138 52.1206C775.809 60.3236 772.144 71.0982 772.144 84.4397C772.144 97.5662 775.589 107.92 782.48 115.504C789.37 123.084 798.612 126.879 810.207 126.879C819.978 126.879 829.166 123.631 837.772 117.144V134.204Z" fill="#4C4F51"/>
<path d="M903.469 138.254C899.24 140.588 893.663 141.753 886.736 141.753C867.118 141.753 857.312 130.817 857.312 108.941V0H875.25V27.3462H903.469V42.659H875.25V105.769C875.25 113.278 876.526 118.64 879.08 121.848C881.629 125.056 885.858 126.66 891.767 126.66C896.288 126.66 900.19 125.419 903.469 122.941V138.254Z" fill="#4C4F51"/>
<path d="M974.236 141.972C957.682 141.972 944.466 136.74 934.588 126.274C924.705 115.813 919.768 101.939 919.768 84.6591C919.768 65.8475 924.906 51.153 935.188 40.5801C945.47 30.0072 959.362 24.7207 976.861 24.7207C993.558 24.7207 1006.59 29.8594 1015.96 40.1411C1025.33 50.4228 1030.02 64.6782 1030.02 82.9075C1030.02 100.774 1024.97 115.083 1014.87 125.84C1004.77 136.596 991.224 141.972 974.236 141.972ZM975.549 39.8139C964.026 39.8139 954.914 43.7339 948.203 51.574C941.496 59.4096 938.14 70.22 938.14 84.0006C938.14 97.2749 941.532 107.736 948.314 115.392C955.093 123.049 964.174 126.879 975.549 126.879C987.143 126.879 996.054 123.125 1002.29 115.612C1008.53 108.103 1011.64 97.4184 1011.64 83.5661C1011.64 69.5659 1008.53 58.7734 1002.29 51.1887C996.054 43.6085 987.143 39.8139 975.549 39.8139Z" fill="#4C4F51"/>
<path fill-rule="evenodd" clip-rule="evenodd" d="M59.0234 142.283C23.8579 148.87 -0.00030899 116.547 -0.00030899 84.8506C-0.00030899 53.1537 23.0016 21.0951 59.0234 27.4201" fill="#B5179C"/>
</svg>
